# xmcd
#
# Track frame offsets: 
#        150
#        5735
#        13498
#        14640
#        36725
#        41705
#        49380
#        50413
#        59458
#        63055
#        69580
#        81955
#        98868
#        101915
#        116628
#        130440
#        155995
#        157180
#        181680
#        199023
#        203973
#        223085
#        236520
#        270493
#        272418
#        300065
#        304508
#        323693
#
# Disc length: 4326 seconds
#
# Revision: 9
# Processed by: cddbd v1.5.2PL0 Copyright (c) Steve Scherf et al.
# Submitted via: ExactAudioCopy v1.1
#
DISCID=9e10e41c
DTITLE=Cincinnati Pops Orchestra - Symphonic Star Trek
DYEAR=1996
DGENRE=Soundtrack
TTITLE0=Cincinnati Pops Orchestra feat. Leonard Nimoy - Into The Final
TTITLE0=Frontier
TTITLE1=Main Them From Star Trek: The Next Generation
TTITLE2=Warp-One
TTITLE3=End Title From Star Trek VI: The Undiscovered Country
TTITLE4=The Desctruction Of Praxis And Its Aftermath
TTITLE5=Main Theme From Star Trek: Voyager
TTITLE6=Starship Flyby
TTITLE7=Main Theme From Star Trek: Deep Space Nine
TTITLE8=Alien Probe
TTITLE9=Humpback Whale Song
TTITLE10=Main Title From Star Trek IV: The Voyage Home
TTITLE11=Main Theme From Star Trek (Original TV Series)
TTITLE12=Tribble Trouble
TTITLE13=Suite From Star Trek II - Main Title
TTITLE14=Suite From Star Trek II - Epilogue
TTITLE15=Suite From Star Trek II - End Credits
TTITLE16=Bird Of Prey Decloaking
TTITLE17="The Klingon Battle" From Star Trek: The Motion Picture
TTITLE18=Main Theme From Star Trek: The Motion Picture
TTITLE19=Warp-Eight
TTITLE20="A Busy Man" From Star Trek V: The Final Frontier
TTITLE21=Genesis Project - The Creation And Evolution Of Tinsis
TTITLE22=Suite From The Menagerie (Original TV Pilot)
TTITLE23=Transporter
TTITLE24=Main Theme From Star Trek III: The Search For Spock
TTITLE25=Nexus Energy Ribbon
TTITLE26=End Title From Star Trek: Generations
TTITLE27=The Borg (Bonustrack)
EXTD=Symphonic Star Trek (Surround Sound]\nLabel: Telarc - Inakustik\n
EXTD=CD-80383/1 | CD-80383/2\nEAN: 089408038327
EXTT0=
EXTT1=
EXTT2=
EXTT3=
EXTT4=
EXTT5=
EXTT6=
EXTT7=
EXTT8=
EXTT9=
EXTT10=
EXTT11=
EXTT12=
EXTT13=Main Title
EXTT14=Epilogue
EXTT15=End Credits
EXTT16=Bird-of-Prey Decloaking
EXTT17=
EXTT18=
EXTT19=
EXTT20=
EXTT21=
EXTT22=
EXTT23=
EXTT24=
EXTT25=
EXTT26=
EXTT27=
PLAYORDER=
